<svg xmlns="http://www.w3.org/2000/svg" xmlns:xlink="http://www.w3.org/1999/xlink" width="100px" height="100px" viewBox="0 0 100 100" version="1.1"><desc>Created with Sketch.</desc><defs/><g id="Page-1" stroke="none" stroke-width="1" fill="none" fill-rule="evenodd"><g id="Artboard" fill-rule="nonzero" fill="#FFFFFF"><g id="SvgjsUse1052" transform="translate(0.500000, 18.500000)"><g id="a1496974340205"><path d="M94.633329,55.9296058 L94.4152799,55.8205812 C89.4001496,52.9859423 85.5842895,47.6437382 84.1669701,45.3542222 C92.8889359,40.6661656 98.1221154,33.4705438 98.1221154,25.8388237 C98.1221154,12.1017276 81.6594049,0.981221154 61.489859,0.981221154 C53.9671634,0.981221154 46.9895908,2.50756517 41.2112885,5.12415491 C39.793969,5.01513034 38.267625,4.90610577 36.741281,4.90610577 C16.4627105,4.90610577 0,16.1356367 0,29.7637083 C0,37.3954284 5.23317949,44.5910502 13.9551453,49.2791068 C12.5378259,51.5686229 8.72196581,56.9108269 3.70683547,59.7454658 L3.48878632,59.9635149 C3.05268803,60.2905887 2.83463889,60.726687 2.94366346,61.2718098 C3.05268803,61.8169327 3.48878632,62.1440064 4.03390919,62.253031 L4.25195833,62.253031 C4.7970812,62.253031 5.34220406,62.3620555 5.88732692,62.3620555 C14.7183173,62.3620555 22.2410128,55.2754583 24.2034551,53.313016 C28.2373643,54.2942372 32.3802981,54.7303355 36.6322564,54.7303355 C44.1549519,54.7303355 51.1325246,53.2039914 56.9108269,50.5874017 C58.3281464,50.6964263 59.8544904,50.8054508 61.3808344,50.8054508 C65.7418173,50.8054508 69.8847511,50.260328 73.8096357,49.3881314 C75.772078,51.4595983 83.2947735,58.4371709 92.2347884,58.4371709 C92.7799113,58.4371709 93.3250342,58.4371709 93.870157,58.3281464 L94.0882062,58.3281464 C94.633329,58.3281464 95.0694273,57.8920481 95.1784519,57.3469252 C95.2874765,56.6927778 95.0694273,56.2566795 94.633329,55.9296058 Z M36.6322564,51.4595983 C32.3802981,51.4595983 28.1283397,50.9144754 24.2034551,49.9332543 L23.0041848,49.6061805 L22.2410128,50.4783771 C22.2410128,50.4783771 22.1319882,50.5874017 22.1319882,50.5874017 L22.1319882,50.5874017 C21.1507671,51.5686229 16.6807596,56.1476549 10.9024573,58.1100972 C15.1544156,53.9671634 17.5529562,49.497156 17.5529562,49.3881314 L18.2071036,47.7527628 L16.571735,46.9895908 C8.17684295,42.846657 3.16171261,36.4142073 3.16171261,29.6546838 C3.16171261,17.8800299 17.6619808,8.28586752 35.6510352,7.9587938 C28.8915117,12.4288013 24.748578,18.7522265 24.748578,25.6207746 C24.748578,36.741281 35.5420107,46.2264188 50.4783771,49.3881314 C46.2264188,50.8054508 41.5383622,51.4595983 36.6322564,51.4595983 Z M59.3093675,25.4027254 L55.4935075,25.4027254 L55.1664337,29.32761 L58.6552201,29.32761 C58.6552201,29.6546838 58.7642446,30.090782 58.7642446,30.4178558 C58.7642446,30.7449295 58.7642446,31.0720032 58.7642446,31.3990769 C58.7642446,31.7261506 58.7642446,32.0532244 58.7642446,32.3802981 C58.7642446,32.7073718 58.6552201,33.1434701 58.6552201,33.4705438 L54.83936,33.4705438 L54.4032617,39.4668953 C53.9671634,39.5759199 53.5310652,39.5759199 53.2039914,39.6849444 C52.8769177,39.6849444 52.4408194,39.6849444 52.0047211,39.6849444 C51.5686229,39.6849444 51.2415491,39.6849444 50.8054508,39.6849444 C50.4783771,39.6849444 50.0422788,39.5759199 49.6061805,39.4668953 L50.0422788,33.4705438 L46.5534925,33.4705438 L46.1173942,39.4668953 C45.6812959,39.5759199 45.2451976,39.5759199 44.8090993,39.6849444 C44.4820256,39.6849444 44.0459273,39.6849444 43.6098291,39.6849444 C43.2827553,39.6849444 42.846657,39.6849444 42.5195833,39.6849444 C42.1925096,39.6849444 41.7564113,39.5759199 41.2112885,39.4668953 L41.7564113,33.4705438 L38.0495758,33.4705438 C38.0495758,33.1434701 37.9405513,32.7073718 37.9405513,32.3802981 C37.9405513,32.0532244 37.9405513,31.7261506 37.9405513,31.3990769 C37.9405513,31.0720032 37.9405513,30.6359049 37.9405513,30.3088312 C37.9405513,29.9817575 38.0495758,29.6546838 38.0495758,29.2185855 L42.083485,29.2185855 L42.4105588,25.2937008 L38.7037233,25.2937008 C38.5946987,24.5305288 38.4856741,23.8763814 38.4856741,23.222234 C38.4856741,22.8951603 38.4856741,22.5680865 38.4856741,22.2410128 C38.4856741,21.9139391 38.5946987,21.5868654 38.5946987,21.1507671 L42.7376325,21.1507671 L43.1737308,16.0266122 C43.6098291,15.9175876 44.0459273,15.9175876 44.4820256,15.808563 C44.8090993,15.808563 45.2451976,15.808563 45.6812959,15.808563 C46.0083696,15.808563 46.4444679,15.808563 46.8805662,15.808563 C47.2076399,15.808563 47.6437382,15.9175876 48.0798365,16.0266122 L47.6437382,21.1507671 L51.1325246,21.1507671 L51.5686229,16.0266122 C52.0047211,15.9175876 52.4408194,15.9175876 52.8769177,15.808563 C53.2039914,15.808563 53.6400897,15.808563 53.9671634,15.808563 C54.2942372,15.808563 54.7303355,15.808563 55.1664337,15.808563 C55.4935075,15.808563 55.9296058,15.9175876 56.365704,16.0266122 L55.9296058,21.1507671 L59.4183921,21.1507671 C59.5274167,21.4778408 59.5274167,21.9139391 59.5274167,22.2410128 C59.5274167,22.5680865 59.5274167,22.8951603 59.5274167,23.222234 C59.5274167,23.985406 59.4183921,24.6395534 59.3093675,25.4027254 Z M75.9901271,46.7715417 L75.9901271,46.7715417 C75.8811025,46.6625171 75.8811025,46.6625171 75.8811025,46.5534925 L75.1179305,45.6812959 L73.9186602,46.0083696 C70.3208493,46.9895908 66.3959647,47.4256891 62.4710801,47.5347137 C69.2306036,43.0647062 73.3735374,36.741281 73.3735374,29.8727329 C73.3735374,18.7522265 62.5801047,9.26708867 47.6437382,6.10537607 C51.8956966,4.90610577 56.5837532,4.14293376 61.489859,4.14293376 C79.9150117,4.14293376 94.9604028,13.8461207 94.9604028,25.8388237 C94.9604028,32.5983472 89.9452724,39.030797 81.5503803,43.1737308 L79.9150117,43.9369028 L80.5691592,45.5722714 C80.5691592,45.5722714 82.9676998,50.1513034 87.2196581,54.2942372 C81.4413558,52.3317949 76.8623237,47.7527628 75.9901271,46.7715417 Z M46.8805662,29.32761 L50.3693526,29.32761 L50.6964263,25.4027254 L47.2076399,25.4027254 L46.8805662,29.32761 Z" id="Shape"/></g></g></g></g></svg>